<svg width="72" height="14" viewBox="0 0 72 14" fill="none" xmlns="http://www.w3.org/2000/svg">
<path d="M51.6799 7.74398C52.0079 6.94398 52.5519 6.26398 53.2399 5.75998C51.0639 5.11198 41.2239 5.59998 41.2239 5.59998L37.2399 5.24798L36.4079 4.51998C36.4399 4.42398 36.5279 4.06398 36.3839 3.62398C36.0559 3.70398 35.6879 3.78398 35.3519 3.78398L35.1759 3.19198C35.1759 3.19198 35.5999 3.14398 36.0799 3.06398C35.9359 2.87998 35.7439 2.70398 35.4959 2.52798C34.5279 1.86398 33.7119 2.71998 33.3359 3.23998L33.3279 3.08798L32.4879 2.95198L32.7679 0.359978L29.7599 0.287979L24.3759 0.151978L11.1599 4.97598C11.9199 5.13598 12.6079 5.48798 13.1839 5.97598C13.2479 5.98398 13.3119 5.98398 13.3759 5.98398C13.4959 5.98398 13.6159 5.98398 13.7359 5.97598L13.9119 5.96798L14.0879 5.95198C14.2079 5.94398 14.3279 5.91998 14.4399 5.90398C14.5599 5.88798 14.6719 5.86398 14.7919 5.83998C14.9119 5.81598 15.0239 5.79198 15.1359 5.75998C15.2479 5.72798 15.3679 5.70398 15.4799 5.66398C15.5919 5.63198 15.7039 5.59198 15.8159 5.55998L16.1519 5.43998C16.2639 5.39998 16.3679 5.35198 16.4799 5.30398C16.5839 5.25598 16.6959 5.21598 16.7999 5.15998L17.1199 4.99998C17.2239 4.95198 17.3279 4.88798 17.4319 4.83198L17.7439 4.65598C17.8479 4.59998 17.9439 4.52798 18.0479 4.47198L18.3439 4.27998H18.3519L18.3599 4.27198C19.2639 3.77598 20.1759 3.29598 21.0959 2.83198C21.5599 2.59998 22.0239 2.37598 22.4959 2.15998C22.7359 2.05598 22.9759 1.95198 23.2239 1.85598C23.3519 1.80798 23.4719 1.76798 23.6159 1.72798C23.6799 1.71198 23.7599 1.69598 23.8319 1.67998L23.9599 1.66398C23.9759 1.66398 23.9999 1.66398 24.0239 1.66398C24.2479 1.58398 24.4799 1.51198 24.7039 1.43998C24.9519 1.35998 25.1919 1.29598 25.4399 1.21598C25.6879 1.14398 25.9359 1.07998 26.1839 1.01598C26.4319 0.951979 26.6799 0.887978 26.9279 0.831978C27.1759 0.775978 27.4319 0.711977 27.6799 0.663977L28.0559 0.583977C28.1839 0.559977 28.3119 0.535978 28.4319 0.511978C28.5599 0.487978 28.6879 0.463979 28.8159 0.447979L29.1999 0.399978C29.3279 0.383978 29.4559 0.375978 29.5839 0.359978C29.7119 0.351978 29.8399 0.351977 29.9759 0.343977L29.9839 0.407979L29.6159 0.511978L29.2479 0.623977L28.5199 0.855979L27.7919 1.09598L27.0719 1.33598L25.5999 1.79998C25.3599 1.87998 25.1199 1.95998 24.8719 2.03998C24.6319 2.11998 24.3839 2.19998 24.1439 2.27198L23.9999 2.28798C23.9919 2.28798 23.9839 2.28798 23.9679 2.28798C23.9439 2.28798 23.9199 2.29598 23.9039 2.29598C23.8479 2.30398 23.7999 2.31198 23.7439 2.32798C23.6879 2.33598 23.6319 2.35198 23.5759 2.37598C23.5199 2.39198 23.4559 2.40798 23.3999 2.42398C23.1599 2.49598 22.9279 2.58398 22.6879 2.67198C22.2159 2.85598 21.7439 3.05598 21.2799 3.26398C20.3439 3.67998 19.4239 4.12798 18.5039 4.58398L18.1999 4.75998C18.0959 4.81598 17.9919 4.88798 17.8799 4.94398L17.5519 5.11198C17.4399 5.16798 17.3359 5.22398 17.2239 5.27198L16.8879 5.41598C16.7759 5.46398 16.6639 5.50398 16.5439 5.54398C16.4319 5.58398 16.3199 5.63198 16.1999 5.66398L15.8559 5.77598C15.7359 5.80798 15.6239 5.83198 15.5039 5.86398C15.3839 5.89598 15.2639 5.91998 15.1519 5.94398C15.0319 5.96798 14.9119 5.99198 14.7919 6.00798C14.6719 6.02398 14.5519 6.04798 14.4319 6.05598C14.3119 6.06398 14.1919 6.07998 14.0719 6.08798L13.8879 6.09598H13.7039C13.5839 6.09598 13.4639 6.08798 13.3439 6.07998C13.3119 6.07998 13.2799 6.07198 13.2559 6.07198C13.8639 6.61598 14.3279 7.31998 14.5839 8.11198L19.1359 7.58398L23.9359 7.01598C25.0799 6.76798 26.2239 6.51998 27.3679 6.27998L29.0879 5.92798C29.6639 5.81598 30.2399 5.69598 30.8159 5.59998C30.9599 5.57598 31.1039 5.55198 31.2559 5.52798L31.4799 5.49598C31.5599 5.48798 31.6319 5.47998 31.7359 5.47998C31.8639 5.48798 32.0079 5.47198 32.1519 5.47198L32.5919 5.44798C33.1759 5.40798 33.7599 5.38398 34.3439 5.35198C34.6399 5.33598 34.9279 5.32798 35.2239 5.31998C35.5199 5.31198 35.8159 5.31198 36.1039 5.31198C36.3999 5.31198 36.6959 5.31998 36.9919 5.33598C37.1439 5.34398 37.2959 5.35998 37.4479 5.37598C37.5279 5.38398 37.6079 5.39998 37.6879 5.41598C37.7599 5.43198 37.8399 5.44798 37.9359 5.48798L38.0639 5.51998L38.2239 5.56798C38.3279 5.59998 38.4319 5.63198 38.5359 5.66398C38.7439 5.73598 38.9439 5.82398 39.1519 5.93598C39.2559 5.99198 39.3599 6.05598 39.4559 6.15198C39.5039 6.19998 39.5599 6.25598 39.5999 6.33598C39.6479 6.40798 39.6799 6.51998 39.6719 6.63198C39.6639 6.74398 39.6159 6.83998 39.5679 6.90398C39.5199 6.96798 39.4639 7.01598 39.4079 7.06398C39.3039 7.14398 39.1919 7.19998 39.0879 7.24798L38.9759 7.29598L38.8879 7.24798C38.8719 7.23998 38.8239 7.21598 38.7919 7.20798C38.7599 7.19998 38.7279 7.19198 38.6959 7.19198C38.6719 7.19198 38.6479 7.19198 38.6319 7.19998C38.6159 7.20798 38.6079 7.20798 38.5919 7.22398C38.5759 7.23998 38.5679 7.26398 38.5519 7.29598C38.5439 7.32798 38.5359 7.36798 38.5279 7.40798C38.5199 7.44798 38.5199 7.48798 38.5199 7.53598C38.5199 7.58398 38.5199 7.62398 38.5279 7.67198C38.5359 7.76798 38.5439 7.85598 38.5679 7.95198C38.5839 8.04798 38.6079 8.14398 38.6319 8.23998C38.6799 8.43198 38.7359 8.62398 38.7919 8.81598L38.7999 8.83198C38.8079 8.87198 38.8079 8.90398 38.8159 8.94398L38.8239 9.05598C38.8319 9.12798 38.8319 9.19998 38.8319 9.27198C38.8319 9.41598 38.8159 9.55998 38.7919 9.70398C38.7599 9.84798 38.7199 9.99198 38.6479 10.12C38.6079 10.184 38.5599 10.24 38.5039 10.288C38.4719 10.312 38.4479 10.336 38.4079 10.352C38.3679 10.368 38.3439 10.384 38.3039 10.4L38.2799 10.344C38.3119 10.328 38.3359 10.312 38.3599 10.296C38.3839 10.28 38.4079 10.256 38.4319 10.232C38.4719 10.184 38.5119 10.128 38.5359 10.072C38.5839 9.95198 38.6079 9.82398 38.6159 9.68798C38.6239 9.55998 38.6239 9.42398 38.6079 9.28798C38.5999 9.22398 38.5919 9.15198 38.5839 9.08798L38.5679 8.99198C38.5599 8.96798 38.5599 8.93598 38.5519 8.91198C38.5119 8.81598 38.4719 8.72798 38.4399 8.63198C38.3999 8.53598 38.3679 8.43998 38.3359 8.34398C38.3039 8.24798 38.2719 8.14398 38.2479 8.03998C38.2159 7.93598 38.1999 7.83198 38.1759 7.72798C38.1679 7.67198 38.1599 7.61598 38.1599 7.55998C38.1519 7.50398 38.1519 7.44798 38.1599 7.38398C38.1599 7.31998 38.1679 7.26398 38.1919 7.19198C38.2079 7.12798 38.2399 7.05598 38.2799 6.99198C38.3279 6.92798 38.3919 6.86398 38.4719 6.82398C38.5519 6.78398 38.6319 6.76798 38.7039 6.76798C38.7759 6.75998 38.8479 6.76798 38.9119 6.78398C38.9359 6.79198 38.9599 6.79198 38.9759 6.79998C39.0319 6.76798 39.0799 6.73598 39.1199 6.70398C39.1439 6.67998 39.1679 6.65598 39.1759 6.63998C39.1759 6.63998 39.1759 6.63198 39.1839 6.63198C39.1839 6.63198 39.1839 6.63198 39.1759 6.62398C39.1679 6.60798 39.1439 6.59198 39.1199 6.56798C39.0639 6.51998 38.9919 6.47998 38.9039 6.43998C38.7359 6.35998 38.5519 6.29598 38.3599 6.23998C38.2639 6.20798 38.1679 6.18398 38.0719 6.15998L37.9279 6.12798L37.7839 6.09598H37.7759L37.7199 6.07998C37.7039 6.07198 37.6399 6.05598 37.5839 6.04798C37.5199 6.03998 37.4559 6.03198 37.3839 6.02398C37.2479 6.01598 37.1039 6.00798 36.9679 6.00798C36.6799 5.99998 36.3919 5.99998 36.1039 5.99998L35.2319 6.01598L34.3599 6.03198L32.6079 6.07998L32.1679 6.08798L31.9439 6.09598H31.7919H31.7679H31.7359H31.7199C31.7119 6.09598 31.7119 6.09598 31.7119 6.09598H31.7039C31.6639 6.09598 31.5919 6.09598 31.5279 6.10398C31.4559 6.11198 31.3919 6.11998 31.3199 6.12798C31.1759 6.14398 31.0319 6.16798 30.8879 6.18398C29.7359 6.35198 28.5839 6.56798 27.4399 6.77598C26.2879 6.98398 25.1439 7.20798 23.9919 7.43198H23.9839H23.9999C23.1919 7.51198 22.3919 7.58398 21.5839 7.65598L19.1679 7.86398L16.7519 8.06398L14.6159 8.23998C14.7439 8.67198 14.8159 9.12798 14.8159 9.59198C14.8159 10.72 14.4159 11.752 13.7439 12.56L51.2239 13.336L50.9599 7.93598L51.6799 7.74398Z" fill="#E74C3C"/>
<path d="M9.1759 4.96799H8.7599C8.1279 1.95999 6.2399 1.67999 6.2399 1.67999L0.295898 1.47198C0.295898 1.47198 2.8479 8.53599 4.0559 8.53599H5.6079C5.9999 6.75999 7.3999 5.35199 9.1759 4.96799Z" fill="#E74C3C"/>
<path d="M71.6799 12.208L69.7599 12L69.9359 10.008L67.4559 9.97597C66.7679 9.63197 61.2799 7.78397 60.1199 7.39197C60.4479 8.03197 60.6399 8.75197 60.6399 9.51997C60.6399 9.89597 60.5919 10.264 60.5119 10.608L61.9679 10.88L61.7919 12.56L69.9439 12.736C71.9999 12.664 71.6799 12.208 71.6799 12.208Z" fill="#E74C3C"/>
<path d="M10.16 5.18396C8.08797 5.18396 6.35197 6.63996 5.92797 8.57596C5.86397 8.87996 5.82397 9.19196 5.82397 9.51996C5.82397 11.912 7.76797 13.856 10.16 13.856C11.408 13.856 12.536 13.328 13.328 12.48C14.048 11.704 14.496 10.664 14.496 9.51996C14.496 7.11996 12.56 5.18396 10.16 5.18396ZM11.272 11.464C10.944 11.648 10.568 11.76 10.168 11.76C8.97597 11.76 8.00797 10.832 7.93597 9.66396C7.92797 9.61596 7.92797 9.56796 7.92797 9.52796C7.92797 8.29596 8.92797 7.28796 10.168 7.28796C11.4 7.28796 12.408 8.28796 12.408 9.52796C12.4 10.352 11.944 11.08 11.272 11.464Z" fill="#E74C3C"/>
<path d="M60.176 8.40796C59.68 6.55196 57.992 5.18396 55.984 5.18396C53.592 5.18396 51.6479 7.12796 51.6479 9.51996C51.6479 11.912 53.592 13.856 55.984 13.856C58.192 13.856 60.0239 12.2 60.2879 10.056C60.3119 9.87996 60.32 9.70396 60.32 9.51996C60.32 9.13596 60.264 8.76796 60.176 8.40796ZM56.256 11.76C55.024 11.76 54.016 10.76 54.016 9.51996C54.016 8.28796 55.016 7.27996 56.256 7.27996C57.496 7.27996 58.496 8.27996 58.496 9.51996C58.496 10.752 57.496 11.76 56.256 11.76Z" fill="#E74C3C"/>
</svg>
